<?xml version="1.0" encoding="UTF-8"?>
<svg xmlns="http://www.w3.org/2000/svg" width="128" height="256" viewBox="0 0 128 256" shape-rendering="crispEdges" image-rendering="pixelated">
<rect width="128" height="256" fill="rgba(0,0,0,0)"/>
<rect x="12.37" y="20.535" width="0.9900000000000001" height="3.7379999999999995" fill="#f0c8a8" stroke="#c5a48a" stroke-width="0.4"/><rect x="18.64" y="20.535" width="0.9900000000000001" height="3.7379999999999995" fill="#f0c8a8" stroke="#c5a48a" stroke-width="0.4"/><polygon points="13.36,19.71 18.64,19.71 18.904,22.113 18.508,25.05 13.492,25.05 13.096,22.113" fill="#7cb6ff" stroke="#5d89bf" stroke-width="0.5"/><rect x="13.909999999999998" y="25.05" width="0.9900000000000001" height="4.449999999999999" fill="#3a5b8c" stroke="#2c4469" stroke-width="0.4"/><rect x="17.1" y="25.05" width="0.9900000000000001" height="4.449999999999999" fill="#3a5b8c" stroke="#2c4469" stroke-width="0.4"/><circle cx="16" cy="17.9" r="2.3100000000000005" fill="#f0c8a8" stroke="#c5a48a" stroke-width="0.5"/><path d="M 13.69 17.668999999999997 Q 16 14.896999999999998 18.310000000000002 17.668999999999997 L 18.1945 18.131 L 13.805499999999999 18.131 Z" fill="#b07f44" stroke="#845f33" stroke-width="0.4"/><circle cx="15.1915" cy="18.246499999999997" r="0.55" fill="#1a1a1a"/><circle cx="16.8085" cy="18.246499999999997" r="0.55" fill="#1a1a1a"/><rect x="44.37" y="19.655" width="0.9900000000000001" height="3.7379999999999995" fill="#f0c8a8" stroke="#c5a48a" stroke-width="0.4"/><rect x="50.64" y="21.415" width="0.9900000000000001" height="3.7379999999999995" fill="#f0c8a8" stroke="#c5a48a" stroke-width="0.4"/><polygon points="45.36,19.71 50.64,19.71 50.904,22.113 50.508,25.05 45.492,25.05 45.096,22.113" fill="#7cb6ff" stroke="#5d89bf" stroke-width="0.5"/><rect x="45.91" y="25.05" width="0.9900000000000001" height="5.219999999999999" fill="#3a5b8c" stroke="#2c4469" stroke-width="0.4"/><rect x="49.1" y="25.05" width="0.9900000000000001" height="3.6799999999999993" fill="#3a5b8c" stroke="#2c4469" stroke-width="0.4"/><circle cx="48" cy="17.9" r="2.3100000000000005" fill="#f0c8a8" stroke="#c5a48a" stroke-width="0.5"/><path d="M 45.69 17.668999999999997 Q 48 14.896999999999998 50.31 17.668999999999997 L 50.1945 18.131 L 45.8055 18.131 Z" fill="#b07f44" stroke="#845f33" stroke-width="0.4"/><circle cx="47.1915" cy="18.246499999999997" r="0.55" fill="#1a1a1a"/><circle cx="48.8085" cy="18.246499999999997" r="0.55" fill="#1a1a1a"/><rect x="76.37" y="20.535" width="0.9900000000000001" height="3.7379999999999995" fill="#f0c8a8" stroke="#c5a48a" stroke-width="0.4"/><rect x="82.64" y="20.535" width="0.9900000000000001" height="3.7379999999999995" fill="#f0c8a8" stroke="#c5a48a" stroke-width="0.4"/><polygon points="77.36,19.71 82.64,19.71 82.904,22.113 82.508,25.05 77.492,25.05 77.096,22.113" fill="#7cb6ff" stroke="#5d89bf" stroke-width="0.5"/><rect x="77.91000000000001" y="25.05" width="0.9900000000000001" height="4.449999999999999" fill="#3a5b8c" stroke="#2c4469" stroke-width="0.4"/><rect x="81.1" y="25.05" width="0.9900000000000001" height="4.449999999999999" fill="#3a5b8c" stroke="#2c4469" stroke-width="0.4"/><circle cx="80" cy="17.9" r="2.3100000000000005" fill="#f0c8a8" stroke="#c5a48a" stroke-width="0.5"/><path d="M 77.69 17.668999999999997 Q 80 14.896999999999998 82.31 17.668999999999997 L 82.1945 18.131 L 77.8055 18.131 Z" fill="#b07f44" stroke="#845f33" stroke-width="0.4"/><circle cx="79.1915" cy="18.246499999999997" r="0.55" fill="#1a1a1a"/><circle cx="80.8085" cy="18.246499999999997" r="0.55" fill="#1a1a1a"/><rect x="108.37" y="21.415" width="0.9900000000000001" height="3.7379999999999995" fill="#f0c8a8" stroke="#c5a48a" stroke-width="0.4"/><rect x="114.64" y="19.655" width="0.9900000000000001" height="3.7379999999999995" fill="#f0c8a8" stroke="#c5a48a" stroke-width="0.4"/><polygon points="109.36,19.71 114.64,19.71 114.904,22.113 114.508,25.05 109.492,25.05 109.096,22.113" fill="#7cb6ff" stroke="#5d89bf" stroke-width="0.5"/><rect x="109.91000000000001" y="25.05" width="0.9900000000000001" height="3.6799999999999993" fill="#3a5b8c" stroke="#2c4469" stroke-width="0.4"/><rect x="113.1" y="25.05" width="0.9900000000000001" height="5.219999999999999" fill="#3a5b8c" stroke="#2c4469" stroke-width="0.4"/><circle cx="112" cy="17.9" r="2.3100000000000005" fill="#f0c8a8" stroke="#c5a48a" stroke-width="0.5"/><path d="M 109.69 17.668999999999997 Q 112 14.896999999999998 114.31 17.668999999999997 L 114.1945 18.131 L 109.8055 18.131 Z" fill="#b07f44" stroke="#845f33" stroke-width="0.4"/><circle cx="111.1915" cy="18.246499999999997" r="0.55" fill="#1a1a1a"/><circle cx="112.8085" cy="18.246499999999997" r="0.55" fill="#1a1a1a"/><rect x="11.248000000000001" y="49.763999999999996" width="1.296" height="4.785200000000003" fill="#eabf99" stroke="#c09d7d" stroke-width="0.4"/><rect x="19.456" y="49.763999999999996" width="1.296" height="4.785200000000003" fill="#eabf99" stroke="#c09d7d" stroke-width="0.4"/><polygon points="12.544,48.684 19.456,48.684 19.8016,51.7602 19.2832,55.52 12.7168,55.52 12.1984,51.7602" fill="#5aa84a" stroke="#447e38" stroke-width="0.5"/><rect x="13.264000000000001" y="55.52" width="1.296" height="5.979999999999997" fill="#3e6a2a" stroke="#2f5020" stroke-width="0.4"/><rect x="17.44" y="55.52" width="1.296" height="5.979999999999997" fill="#3e6a2a" stroke="#2f5020" stroke-width="0.4"/><circle cx="16" cy="46.16" r="3.024" fill="#eabf99" stroke="#c09d7d" stroke-width="0.5"/><path d="M 12.975999999999999 45.8576 Q 16 42.2288 19.024 45.8576 L 18.872799999999998 46.462399999999995 L 13.1272 46.462399999999995 Z" fill="#8a5a2b" stroke="#684420" stroke-width="0.4"/><circle cx="14.9416" cy="46.6136" r="0.55" fill="#1a1a1a"/><circle cx="17.0584" cy="46.6136" r="0.55" fill="#1a1a1a"/><rect x="43.248" y="48.611999999999995" width="1.296" height="4.785200000000003" fill="#eabf99" stroke="#c09d7d" stroke-width="0.4"/><rect x="51.456" y="50.916" width="1.296" height="4.785200000000003" fill="#eabf99" stroke="#c09d7d" stroke-width="0.4"/><polygon points="44.544,48.684 51.456,48.684 51.8016,51.7602 51.2832,55.52 44.7168,55.52 44.1984,51.7602" fill="#5aa84a" stroke="#447e38" stroke-width="0.5"/><rect x="45.263999999999996" y="55.52" width="1.296" height="6.987999999999997" fill="#3e6a2a" stroke="#2f5020" stroke-width="0.4"/><rect x="49.440000000000005" y="55.52" width="1.296" height="4.971999999999997" fill="#3e6a2a" stroke="#2f5020" stroke-width="0.4"/><circle cx="48" cy="46.16" r="3.024" fill="#eabf99" stroke="#c09d7d" stroke-width="0.5"/><path d="M 44.976 45.8576 Q 48 42.2288 51.024 45.8576 L 50.8728 46.462399999999995 L 45.1272 46.462399999999995 Z" fill="#8a5a2b" stroke="#684420" stroke-width="0.4"/><circle cx="46.9416" cy="46.6136" r="0.55" fill="#1a1a1a"/><circle cx="49.0584" cy="46.6136" r="0.55" fill="#1a1a1a"/><rect x="75.24799999999999" y="49.763999999999996" width="1.296" height="4.785200000000003" fill="#eabf99" stroke="#c09d7d" stroke-width="0.4"/><rect x="83.456" y="49.763999999999996" width="1.296" height="4.785200000000003" fill="#eabf99" stroke="#c09d7d" stroke-width="0.4"/><polygon points="76.544,48.684 83.456,48.684 83.8016,51.7602 83.2832,55.52 76.7168,55.52 76.1984,51.7602" fill="#5aa84a" stroke="#447e38" stroke-width="0.5"/><rect x="77.264" y="55.52" width="1.296" height="5.979999999999997" fill="#3e6a2a" stroke="#2f5020" stroke-width="0.4"/><rect x="81.44" y="55.52" width="1.296" height="5.979999999999997" fill="#3e6a2a" stroke="#2f5020" stroke-width="0.4"/><circle cx="80" cy="46.16" r="3.024" fill="#eabf99" stroke="#c09d7d" stroke-width="0.5"/><path d="M 76.976 45.8576 Q 80 42.2288 83.024 45.8576 L 82.8728 46.462399999999995 L 77.1272 46.462399999999995 Z" fill="#8a5a2b" stroke="#684420" stroke-width="0.4"/><circle cx="78.9416" cy="46.6136" r="0.55" fill="#1a1a1a"/><circle cx="81.0584" cy="46.6136" r="0.55" fill="#1a1a1a"/><rect x="107.24799999999999" y="50.916" width="1.296" height="4.785200000000003" fill="#eabf99" stroke="#c09d7d" stroke-width="0.4"/><rect x="115.456" y="48.611999999999995" width="1.296" height="4.785200000000003" fill="#eabf99" stroke="#c09d7d" stroke-width="0.4"/><polygon points="108.544,48.684 115.456,48.684 115.8016,51.7602 115.2832,55.52 108.7168,55.52 108.1984,51.7602" fill="#5aa84a" stroke="#447e38" stroke-width="0.5"/><rect x="109.264" y="55.52" width="1.296" height="4.971999999999997" fill="#3e6a2a" stroke="#2f5020" stroke-width="0.4"/><rect x="113.44" y="55.52" width="1.296" height="6.987999999999997" fill="#3e6a2a" stroke="#2f5020" stroke-width="0.4"/><circle cx="112" cy="46.16" r="3.024" fill="#eabf99" stroke="#c09d7d" stroke-width="0.5"/><path d="M 108.976 45.8576 Q 112 42.2288 115.024 45.8576 L 114.8728 46.462399999999995 L 109.1272 46.462399999999995 Z" fill="#8a5a2b" stroke="#684420" stroke-width="0.4"/><circle cx="110.9416" cy="46.6136" r="0.55" fill="#1a1a1a"/><circle cx="113.0584" cy="46.6136" r="0.55" fill="#1a1a1a"/><rect x="10.192" y="79.15599999999999" width="1.584" height="5.7707999999999995" fill="#e3b48a" stroke="#ba9471" stroke-width="0.4"/><rect x="20.224" y="79.15599999999999" width="1.584" height="5.7707999999999995" fill="#e3b48a" stroke="#ba9471" stroke-width="0.4"/><polygon points="11.776,77.836 20.224,77.836 20.6464,81.5458 20.0128,86.08 11.9872,86.08 11.3536,81.5458" fill="#c44c4c" stroke="#933939" stroke-width="0.5"/><rect x="12.656" y="86.08" width="1.584" height="7.420000000000002" fill="#2a3a55" stroke="#202c40" stroke-width="0.4"/><rect x="17.76" y="86.08" width="1.584" height="7.420000000000002" fill="#2a3a55" stroke="#202c40" stroke-width="0.4"/><circle cx="16" cy="74.64" r="3.696" fill="#e3b48a" stroke="#ba9471" stroke-width="0.5"/><path d="M 12.304 74.2704 Q 16 69.8352 19.696 74.2704 L 19.5112 75.0096 L 12.4888 75.0096 Z" fill="#5a3a1f" stroke="#442c17" stroke-width="0.4"/><circle cx="14.7064" cy="75.1944" r="0.55" fill="#1a1a1a"/><circle cx="17.2936" cy="75.1944" r="0.55" fill="#1a1a1a"/><rect x="42.19199999999999" y="77.74799999999999" width="1.584" height="5.7707999999999995" fill="#e3b48a" stroke="#ba9471" stroke-width="0.4"/><rect x="52.224000000000004" y="80.564" width="1.584" height="5.7707999999999995" fill="#e3b48a" stroke="#ba9471" stroke-width="0.4"/><polygon points="43.775999999999996,77.836 52.224000000000004,77.836 52.6464,81.5458 52.0128,86.08 43.9872,86.08 43.3536,81.5458" fill="#c44c4c" stroke="#933939" stroke-width="0.5"/><rect x="44.656" y="86.08" width="1.584" height="8.652000000000001" fill="#2a3a55" stroke="#202c40" stroke-width="0.4"/><rect x="49.76" y="86.08" width="1.584" height="6.1880000000000015" fill="#2a3a55" stroke="#202c40" stroke-width="0.4"/><circle cx="48" cy="74.64" r="3.696" fill="#e3b48a" stroke="#ba9471" stroke-width="0.5"/><path d="M 44.304 74.2704 Q 48 69.8352 51.696 74.2704 L 51.5112 75.0096 L 44.4888 75.0096 Z" fill="#5a3a1f" stroke="#442c17" stroke-width="0.4"/><circle cx="46.7064" cy="75.1944" r="0.55" fill="#1a1a1a"/><circle cx="49.2936" cy="75.1944" r="0.55" fill="#1a1a1a"/><rect x="74.192" y="79.15599999999999" width="1.584" height="5.7707999999999995" fill="#e3b48a" stroke="#ba9471" stroke-width="0.4"/><rect x="84.224" y="79.15599999999999" width="1.584" height="5.7707999999999995" fill="#e3b48a" stroke="#ba9471" stroke-width="0.4"/><polygon points="75.776,77.836 84.224,77.836 84.6464,81.5458 84.0128,86.08 75.9872,86.08 75.3536,81.5458" fill="#c44c4c" stroke="#933939" stroke-width="0.5"/><rect x="76.65599999999999" y="86.08" width="1.584" height="7.420000000000002" fill="#2a3a55" stroke="#202c40" stroke-width="0.4"/><rect x="81.76" y="86.08" width="1.584" height="7.420000000000002" fill="#2a3a55" stroke="#202c40" stroke-width="0.4"/><circle cx="80" cy="74.64" r="3.696" fill="#e3b48a" stroke="#ba9471" stroke-width="0.5"/><path d="M 76.304 74.2704 Q 80 69.8352 83.696 74.2704 L 83.5112 75.0096 L 76.4888 75.0096 Z" fill="#5a3a1f" stroke="#442c17" stroke-width="0.4"/><circle cx="78.7064" cy="75.1944" r="0.55" fill="#1a1a1a"/><circle cx="81.2936" cy="75.1944" r="0.55" fill="#1a1a1a"/><rect x="106.192" y="80.564" width="1.584" height="5.7707999999999995" fill="#e3b48a" stroke="#ba9471" stroke-width="0.4"/><rect x="116.224" y="77.74799999999999" width="1.584" height="5.7707999999999995" fill="#e3b48a" stroke="#ba9471" stroke-width="0.4"/><polygon points="107.776,77.836 116.224,77.836 116.6464,81.5458 116.0128,86.08 107.9872,86.08 107.3536,81.5458" fill="#c44c4c" stroke="#933939" stroke-width="0.5"/><rect x="108.65599999999999" y="86.08" width="1.584" height="6.1880000000000015" fill="#2a3a55" stroke="#202c40" stroke-width="0.4"/><rect x="113.76" y="86.08" width="1.584" height="8.652000000000001" fill="#2a3a55" stroke="#202c40" stroke-width="0.4"/><circle cx="112" cy="74.64" r="3.696" fill="#e3b48a" stroke="#ba9471" stroke-width="0.5"/><path d="M 108.304 74.2704 Q 112 69.8352 115.696 74.2704 L 115.5112 75.0096 L 108.4888 75.0096 Z" fill="#5a3a1f" stroke="#442c17" stroke-width="0.4"/><circle cx="110.7064" cy="75.1944" r="0.55" fill="#1a1a1a"/><circle cx="113.2936" cy="75.1944" r="0.55" fill="#1a1a1a"/><rect x="9.399999999999999" y="109.2" width="1.8" height="6.509999999999998" fill="#d8a473" stroke="#b1865e" stroke-width="0.4"/><rect x="20.8" y="109.2" width="1.8" height="6.509999999999998" fill="#d8a473" stroke="#b1865e" stroke-width="0.4"/><polygon points="11.2,107.7 20.8,107.7 21.28,111.885 20.56,117 11.440000000000001,117 10.719999999999999,111.885" fill="#4a6b8a" stroke="#385068" stroke-width="0.5"/><rect x="12.200000000000001" y="117" width="1.8" height="8.5" fill="#222a36" stroke="#1a2029" stroke-width="0.4"/><rect x="18" y="117" width="1.8" height="8.5" fill="#222a36" stroke="#1a2029" stroke-width="0.4"/><circle cx="16" cy="104" r="4.2" fill="#d8a473" stroke="#b1865e" stroke-width="0.5"/><path d="M 11.8 103.58 Q 16 98.53999999999999 20.2 103.58 L 19.99 104.42 L 12.01 104.42 Z" fill="#3a261a" stroke="#2c1d14" stroke-width="0.4"/><circle cx="14.53" cy="104.63" r="0.55" fill="#1a1a1a"/><circle cx="17.47" cy="104.63" r="0.55" fill="#1a1a1a"/><rect x="13.9" y="106.31" width="4.2" height="0.7" fill="#2c1d14"/><rect x="41.400000000000006" y="107.60000000000001" width="1.8" height="6.509999999999998" fill="#d8a473" stroke="#b1865e" stroke-width="0.4"/><rect x="52.8" y="110.8" width="1.8" height="6.509999999999998" fill="#d8a473" stroke="#b1865e" stroke-width="0.4"/><polygon points="43.2,107.7 52.8,107.7 53.28,111.885 52.56,117 43.44,117 42.72,111.885" fill="#4a6b8a" stroke="#385068" stroke-width="0.5"/><rect x="44.199999999999996" y="117" width="1.8" height="9.9" fill="#222a36" stroke="#1a2029" stroke-width="0.4"/><rect x="50" y="117" width="1.8" height="7.1" fill="#222a36" stroke="#1a2029" stroke-width="0.4"/><circle cx="48" cy="104" r="4.2" fill="#d8a473" stroke="#b1865e" stroke-width="0.5"/><path d="M 43.8 103.58 Q 48 98.53999999999999 52.2 103.58 L 51.99 104.42 L 44.01 104.42 Z" fill="#3a261a" stroke="#2c1d14" stroke-width="0.4"/><circle cx="46.53" cy="104.63" r="0.55" fill="#1a1a1a"/><circle cx="49.47" cy="104.63" r="0.55" fill="#1a1a1a"/><rect x="45.9" y="106.31" width="4.2" height="0.7" fill="#2c1d14"/><rect x="73.4" y="109.2" width="1.8" height="6.509999999999998" fill="#d8a473" stroke="#b1865e" stroke-width="0.4"/><rect x="84.8" y="109.2" width="1.8" height="6.509999999999998" fill="#d8a473" stroke="#b1865e" stroke-width="0.4"/><polygon points="75.2,107.7 84.8,107.7 85.28,111.885 84.56,117 75.44,117 74.72,111.885" fill="#4a6b8a" stroke="#385068" stroke-width="0.5"/><rect x="76.2" y="117" width="1.8" height="8.5" fill="#222a36" stroke="#1a2029" stroke-width="0.4"/><rect x="82" y="117" width="1.8" height="8.5" fill="#222a36" stroke="#1a2029" stroke-width="0.4"/><circle cx="80" cy="104" r="4.2" fill="#d8a473" stroke="#b1865e" stroke-width="0.5"/><path d="M 75.8 103.58 Q 80 98.53999999999999 84.2 103.58 L 83.99 104.42 L 76.01 104.42 Z" fill="#3a261a" stroke="#2c1d14" stroke-width="0.4"/><circle cx="78.53" cy="104.63" r="0.55" fill="#1a1a1a"/><circle cx="81.47" cy="104.63" r="0.55" fill="#1a1a1a"/><rect x="77.9" y="106.31" width="4.2" height="0.7" fill="#2c1d14"/><rect x="105.4" y="110.8" width="1.8" height="6.509999999999998" fill="#d8a473" stroke="#b1865e" stroke-width="0.4"/><rect x="116.8" y="107.60000000000001" width="1.8" height="6.509999999999998" fill="#d8a473" stroke="#b1865e" stroke-width="0.4"/><polygon points="107.2,107.7 116.8,107.7 117.28,111.885 116.56,117 107.44,117 106.72,111.885" fill="#4a6b8a" stroke="#385068" stroke-width="0.5"/><rect x="108.2" y="117" width="1.8" height="7.1" fill="#222a36" stroke="#1a2029" stroke-width="0.4"/><rect x="114" y="117" width="1.8" height="9.9" fill="#222a36" stroke="#1a2029" stroke-width="0.4"/><circle cx="112" cy="104" r="4.2" fill="#d8a473" stroke="#b1865e" stroke-width="0.5"/><path d="M 107.8 103.58 Q 112 98.53999999999999 116.2 103.58 L 115.99 104.42 L 108.01 104.42 Z" fill="#3a261a" stroke="#2c1d14" stroke-width="0.4"/><circle cx="110.53" cy="104.63" r="0.55" fill="#1a1a1a"/><circle cx="113.47" cy="104.63" r="0.55" fill="#1a1a1a"/><rect x="109.9" y="106.31" width="4.2" height="0.7" fill="#2c1d14"/><rect x="12.581199999999999" y="148.535" width="0.9900000000000001" height="3.738000000000002" fill="#f3cdb0" stroke="#c7a890" stroke-width="0.4"/><rect x="18.4288" y="148.535" width="0.9900000000000001" height="3.738000000000002" fill="#f3cdb0" stroke="#c7a890" stroke-width="0.4"/><polygon points="13.5712,147.71 18.4288,147.71 18.671680000000002,150.113 18.30736,153.05 13.69264,153.05 13.32832,150.113" fill="#ffb1d6" stroke="#bf85a1" stroke-width="0.5"/><rect x="13.909999999999998" y="153.05" width="0.9900000000000001" height="4.449999999999989" fill="#a04a7a" stroke="#78385c" stroke-width="0.4"/><rect x="17.1" y="153.05" width="0.9900000000000001" height="4.449999999999989" fill="#a04a7a" stroke="#78385c" stroke-width="0.4"/><circle cx="16" cy="145.9" r="2.3100000000000005" fill="#f3cdb0" stroke="#c7a890" stroke-width="0.5"/><path d="M 13.69 145.43800000000002 Q 16 142.666 18.310000000000002 145.43800000000002 L 18.079 147.979 L 13.921 147.979 Z" fill="#c08850" stroke="#90663c" stroke-width="0.4"/><circle cx="15.1915" cy="146.2465" r="0.55" fill="#1a1a1a"/><circle cx="16.8085" cy="146.2465" r="0.55" fill="#1a1a1a"/><rect x="44.581199999999995" y="147.655" width="0.9900000000000001" height="3.738000000000002" fill="#f3cdb0" stroke="#c7a890" stroke-width="0.4"/><rect x="50.4288" y="149.415" width="0.9900000000000001" height="3.738000000000002" fill="#f3cdb0" stroke="#c7a890" stroke-width="0.4"/><polygon points="45.5712,147.71 50.4288,147.71 50.67168,150.113 50.30736,153.05 45.69264,153.05 45.32832,150.113" fill="#ffb1d6" stroke="#bf85a1" stroke-width="0.5"/><rect x="45.91" y="153.05" width="0.9900000000000001" height="5.219999999999988" fill="#a04a7a" stroke="#78385c" stroke-width="0.4"/><rect x="49.1" y="153.05" width="0.9900000000000001" height="3.6799999999999886" fill="#a04a7a" stroke="#78385c" stroke-width="0.4"/><circle cx="48" cy="145.9" r="2.3100000000000005" fill="#f3cdb0" stroke="#c7a890" stroke-width="0.5"/><path d="M 45.69 145.43800000000002 Q 48 142.666 50.31 145.43800000000002 L 50.079 147.979 L 45.921 147.979 Z" fill="#c08850" stroke="#90663c" stroke-width="0.4"/><circle cx="47.1915" cy="146.2465" r="0.55" fill="#1a1a1a"/><circle cx="48.8085" cy="146.2465" r="0.55" fill="#1a1a1a"/><rect x="76.58120000000001" y="148.535" width="0.9900000000000001" height="3.738000000000002" fill="#f3cdb0" stroke="#c7a890" stroke-width="0.4"/><rect x="82.4288" y="148.535" width="0.9900000000000001" height="3.738000000000002" fill="#f3cdb0" stroke="#c7a890" stroke-width="0.4"/><polygon points="77.5712,147.71 82.4288,147.71 82.67168,150.113 82.30736,153.05 77.69264,153.05 77.32832,150.113" fill="#ffb1d6" stroke="#bf85a1" stroke-width="0.5"/><rect x="77.91000000000001" y="153.05" width="0.9900000000000001" height="4.449999999999989" fill="#a04a7a" stroke="#78385c" stroke-width="0.4"/><rect x="81.1" y="153.05" width="0.9900000000000001" height="4.449999999999989" fill="#a04a7a" stroke="#78385c" stroke-width="0.4"/><circle cx="80" cy="145.9" r="2.3100000000000005" fill="#f3cdb0" stroke="#c7a890" stroke-width="0.5"/><path d="M 77.69 145.43800000000002 Q 80 142.666 82.31 145.43800000000002 L 82.07900000000001 147.979 L 77.92099999999999 147.979 Z" fill="#c08850" stroke="#90663c" stroke-width="0.4"/><circle cx="79.1915" cy="146.2465" r="0.55" fill="#1a1a1a"/><circle cx="80.8085" cy="146.2465" r="0.55" fill="#1a1a1a"/><rect x="108.58120000000001" y="149.415" width="0.9900000000000001" height="3.738000000000002" fill="#f3cdb0" stroke="#c7a890" stroke-width="0.4"/><rect x="114.4288" y="147.655" width="0.9900000000000001" height="3.738000000000002" fill="#f3cdb0" stroke="#c7a890" stroke-width="0.4"/><polygon points="109.5712,147.71 114.4288,147.71 114.67168,150.113 114.30736,153.05 109.69264,153.05 109.32832,150.113" fill="#ffb1d6" stroke="#bf85a1" stroke-width="0.5"/><rect x="109.91000000000001" y="153.05" width="0.9900000000000001" height="3.6799999999999886" fill="#a04a7a" stroke="#78385c" stroke-width="0.4"/><rect x="113.1" y="153.05" width="0.9900000000000001" height="5.219999999999988" fill="#a04a7a" stroke="#78385c" stroke-width="0.4"/><circle cx="112" cy="145.9" r="2.3100000000000005" fill="#f3cdb0" stroke="#c7a890" stroke-width="0.5"/><path d="M 109.69 145.43800000000002 Q 112 142.666 114.31 145.43800000000002 L 114.07900000000001 147.979 L 109.92099999999999 147.979 Z" fill="#c08850" stroke="#90663c" stroke-width="0.4"/><circle cx="111.1915" cy="146.2465" r="0.55" fill="#1a1a1a"/><circle cx="112.8085" cy="146.2465" r="0.55" fill="#1a1a1a"/><rect x="11.52448" y="177.764" width="1.296" height="4.785200000000009" fill="#edc59f" stroke="#c2a282" stroke-width="0.4"/><rect x="19.17952" y="177.764" width="1.296" height="4.785200000000009" fill="#edc59f" stroke="#c2a282" stroke-width="0.4"/><polygon points="12.82048,176.684 19.17952,176.684 19.497472000000002,179.7602 19.020544,183.52 12.979455999999999,183.52 12.502528,179.7602" fill="#f0a040" stroke="#b47830" stroke-width="0.5"/><rect x="13.264000000000001" y="183.52" width="1.296" height="5.97999999999999" fill="#a05a20" stroke="#784418" stroke-width="0.4"/><rect x="17.44" y="183.52" width="1.296" height="5.97999999999999" fill="#a05a20" stroke="#784418" stroke-width="0.4"/><circle cx="16" cy="174.16" r="3.024" fill="#edc59f" stroke="#c2a282" stroke-width="0.5"/><path d="M 12.975999999999999 173.55519999999999 Q 16 169.9264 19.024 173.55519999999999 L 18.7216 176.8816 L 13.2784 176.8816 Z" fill="#a06030" stroke="#784824" stroke-width="0.4"/><circle cx="14.9416" cy="174.6136" r="0.55" fill="#1a1a1a"/><circle cx="17.0584" cy="174.6136" r="0.55" fill="#1a1a1a"/><rect x="43.524480000000004" y="176.61200000000002" width="1.296" height="4.785200000000009" fill="#edc59f" stroke="#c2a282" stroke-width="0.4"/><rect x="51.17952" y="178.916" width="1.296" height="4.785200000000009" fill="#edc59f" stroke="#c2a282" stroke-width="0.4"/><polygon points="44.82048,176.684 51.17952,176.684 51.497472,179.7602 51.020544,183.52 44.979456,183.52 44.502528,179.7602" fill="#f0a040" stroke="#b47830" stroke-width="0.5"/><rect x="45.263999999999996" y="183.52" width="1.296" height="6.98799999999999" fill="#a05a20" stroke="#784418" stroke-width="0.4"/><rect x="49.440000000000005" y="183.52" width="1.296" height="4.97199999999999" fill="#a05a20" stroke="#784418" stroke-width="0.4"/><circle cx="48" cy="174.16" r="3.024" fill="#edc59f" stroke="#c2a282" stroke-width="0.5"/><path d="M 44.976 173.55519999999999 Q 48 169.9264 51.024 173.55519999999999 L 50.7216 176.8816 L 45.2784 176.8816 Z" fill="#a06030" stroke="#784824" stroke-width="0.4"/><circle cx="46.9416" cy="174.6136" r="0.55" fill="#1a1a1a"/><circle cx="49.0584" cy="174.6136" r="0.55" fill="#1a1a1a"/><rect x="75.52448" y="177.764" width="1.296" height="4.785200000000009" fill="#edc59f" stroke="#c2a282" stroke-width="0.4"/><rect x="83.17952" y="177.764" width="1.296" height="4.785200000000009" fill="#edc59f" stroke="#c2a282" stroke-width="0.4"/><polygon points="76.82048,176.684 83.17952,176.684 83.497472,179.7602 83.020544,183.52 76.979456,183.52 76.502528,179.7602" fill="#f0a040" stroke="#b47830" stroke-width="0.5"/><rect x="77.264" y="183.52" width="1.296" height="5.97999999999999" fill="#a05a20" stroke="#784418" stroke-width="0.4"/><rect x="81.44" y="183.52" width="1.296" height="5.97999999999999" fill="#a05a20" stroke="#784418" stroke-width="0.4"/><circle cx="80" cy="174.16" r="3.024" fill="#edc59f" stroke="#c2a282" stroke-width="0.5"/><path d="M 76.976 173.55519999999999 Q 80 169.9264 83.024 173.55519999999999 L 82.7216 176.8816 L 77.2784 176.8816 Z" fill="#a06030" stroke="#784824" stroke-width="0.4"/><circle cx="78.9416" cy="174.6136" r="0.55" fill="#1a1a1a"/><circle cx="81.0584" cy="174.6136" r="0.55" fill="#1a1a1a"/><rect x="107.52448" y="178.916" width="1.296" height="4.785200000000009" fill="#edc59f" stroke="#c2a282" stroke-width="0.4"/><rect x="115.17952" y="176.61200000000002" width="1.296" height="4.785200000000009" fill="#edc59f" stroke="#c2a282" stroke-width="0.4"/><polygon points="108.82048,176.684 115.17952,176.684 115.497472,179.7602 115.020544,183.52 108.979456,183.52 108.502528,179.7602" fill="#f0a040" stroke="#b47830" stroke-width="0.5"/><rect x="109.264" y="183.52" width="1.296" height="4.97199999999999" fill="#a05a20" stroke="#784418" stroke-width="0.4"/><rect x="113.44" y="183.52" width="1.296" height="6.98799999999999" fill="#a05a20" stroke="#784418" stroke-width="0.4"/><circle cx="112" cy="174.16" r="3.024" fill="#edc59f" stroke="#c2a282" stroke-width="0.5"/><path d="M 108.976 173.55519999999999 Q 112 169.9264 115.024 173.55519999999999 L 114.7216 176.8816 L 109.2784 176.8816 Z" fill="#a06030" stroke="#784824" stroke-width="0.4"/><circle cx="110.9416" cy="174.6136" r="0.55" fill="#1a1a1a"/><circle cx="113.0584" cy="174.6136" r="0.55" fill="#1a1a1a"/><rect x="10.52992" y="207.15599999999998" width="1.584" height="5.770800000000019" fill="#e6b893" stroke="#bd9779" stroke-width="0.4"/><rect x="19.88608" y="207.15599999999998" width="1.584" height="5.770800000000019" fill="#e6b893" stroke="#bd9779" stroke-width="0.4"/><polygon points="12.11392,205.83599999999998 19.88608,205.83599999999998 20.274688,209.54579999999999 19.691776,214.08 12.308224,214.08 11.725311999999999,209.54579999999999" fill="#b94aa0" stroke="#8b3878" stroke-width="0.5"/><rect x="12.656" y="214.08" width="1.584" height="7.4199999999999875" fill="#5a2050" stroke="#44183c" stroke-width="0.4"/><rect x="17.76" y="214.08" width="1.584" height="7.4199999999999875" fill="#5a2050" stroke="#44183c" stroke-width="0.4"/><circle cx="16" cy="202.64" r="3.696" fill="#e6b893" stroke="#bd9779" stroke-width="0.5"/><path d="M 12.304 201.90079999999998 Q 16 197.4656 19.696 201.90079999999998 L 19.3264 205.9664 L 12.6736 205.9664 Z" fill="#6a3818" stroke="#502a12" stroke-width="0.4"/><circle cx="14.7064" cy="203.19439999999997" r="0.55" fill="#1a1a1a"/><circle cx="17.2936" cy="203.19439999999997" r="0.55" fill="#1a1a1a"/><rect x="42.52992" y="205.748" width="1.584" height="5.770800000000019" fill="#e6b893" stroke="#bd9779" stroke-width="0.4"/><rect x="51.88608" y="208.56399999999996" width="1.584" height="5.770800000000019" fill="#e6b893" stroke="#bd9779" stroke-width="0.4"/><polygon points="44.11392,205.83599999999998 51.88608,205.83599999999998 52.274688,209.54579999999999 51.691776,214.08 44.308224,214.08 43.725312,209.54579999999999" fill="#b94aa0" stroke="#8b3878" stroke-width="0.5"/><rect x="44.656" y="214.08" width="1.584" height="8.651999999999987" fill="#5a2050" stroke="#44183c" stroke-width="0.4"/><rect x="49.76" y="214.08" width="1.584" height="6.187999999999987" fill="#5a2050" stroke="#44183c" stroke-width="0.4"/><circle cx="48" cy="202.64" r="3.696" fill="#e6b893" stroke="#bd9779" stroke-width="0.5"/><path d="M 44.304 201.90079999999998 Q 48 197.4656 51.696 201.90079999999998 L 51.3264 205.9664 L 44.6736 205.9664 Z" fill="#6a3818" stroke="#502a12" stroke-width="0.4"/><circle cx="46.7064" cy="203.19439999999997" r="0.55" fill="#1a1a1a"/><circle cx="49.2936" cy="203.19439999999997" r="0.55" fill="#1a1a1a"/><rect x="74.52991999999999" y="207.15599999999998" width="1.584" height="5.770800000000019" fill="#e6b893" stroke="#bd9779" stroke-width="0.4"/><rect x="83.88608" y="207.15599999999998" width="1.584" height="5.770800000000019" fill="#e6b893" stroke="#bd9779" stroke-width="0.4"/><polygon points="76.11392,205.83599999999998 83.88608,205.83599999999998 84.274688,209.54579999999999 83.691776,214.08 76.308224,214.08 75.725312,209.54579999999999" fill="#b94aa0" stroke="#8b3878" stroke-width="0.5"/><rect x="76.65599999999999" y="214.08" width="1.584" height="7.4199999999999875" fill="#5a2050" stroke="#44183c" stroke-width="0.4"/><rect x="81.76" y="214.08" width="1.584" height="7.4199999999999875" fill="#5a2050" stroke="#44183c" stroke-width="0.4"/><circle cx="80" cy="202.64" r="3.696" fill="#e6b893" stroke="#bd9779" stroke-width="0.5"/><path d="M 76.304 201.90079999999998 Q 80 197.4656 83.696 201.90079999999998 L 83.3264 205.9664 L 76.6736 205.9664 Z" fill="#6a3818" stroke="#502a12" stroke-width="0.4"/><circle cx="78.7064" cy="203.19439999999997" r="0.55" fill="#1a1a1a"/><circle cx="81.2936" cy="203.19439999999997" r="0.55" fill="#1a1a1a"/><rect x="106.52991999999999" y="208.56399999999996" width="1.584" height="5.770800000000019" fill="#e6b893" stroke="#bd9779" stroke-width="0.4"/><rect x="115.88608" y="205.748" width="1.584" height="5.770800000000019" fill="#e6b893" stroke="#bd9779" stroke-width="0.4"/><polygon points="108.11392,205.83599999999998 115.88608,205.83599999999998 116.274688,209.54579999999999 115.691776,214.08 108.308224,214.08 107.725312,209.54579999999999" fill="#b94aa0" stroke="#8b3878" stroke-width="0.5"/><rect x="108.65599999999999" y="214.08" width="1.584" height="6.187999999999987" fill="#5a2050" stroke="#44183c" stroke-width="0.4"/><rect x="113.76" y="214.08" width="1.584" height="8.651999999999987" fill="#5a2050" stroke="#44183c" stroke-width="0.4"/><circle cx="112" cy="202.64" r="3.696" fill="#e6b893" stroke="#bd9779" stroke-width="0.5"/><path d="M 108.304 201.90079999999998 Q 112 197.4656 115.696 201.90079999999998 L 115.3264 205.9664 L 108.6736 205.9664 Z" fill="#6a3818" stroke="#502a12" stroke-width="0.4"/><circle cx="110.7064" cy="203.19439999999997" r="0.55" fill="#1a1a1a"/><circle cx="113.2936" cy="203.19439999999997" r="0.55" fill="#1a1a1a"/><rect x="9.783999999999999" y="237.2" width="1.8" height="6.510000000000008" fill="#dba47a" stroke="#b48664" stroke-width="0.4"/><rect x="20.416" y="237.2" width="1.8" height="6.510000000000008" fill="#dba47a" stroke="#b48664" stroke-width="0.4"/><polygon points="11.584,235.7 20.416,235.7 20.8576,239.885 20.1952,245 11.8048,245 11.142399999999999,239.885" fill="#9a5ac8" stroke="#744496" stroke-width="0.5"/><rect x="12.200000000000001" y="245" width="1.8" height="8.5" fill="#3a2050" stroke="#2c183c" stroke-width="0.4"/><rect x="18" y="245" width="1.8" height="8.5" fill="#3a2050" stroke="#2c183c" stroke-width="0.4"/><circle cx="16" cy="232" r="4.2" fill="#dba47a" stroke="#b48664" stroke-width="0.5"/><path d="M 11.8 231.16 Q 16 226.12 20.2 231.16 L 19.78 235.78 L 12.219999999999999 235.78 Z" fill="#2a1810" stroke="#20120c" stroke-width="0.4"/><circle cx="14.53" cy="232.63" r="0.55" fill="#1a1a1a"/><circle cx="17.47" cy="232.63" r="0.55" fill="#1a1a1a"/><rect x="41.784000000000006" y="235.6" width="1.8" height="6.510000000000008" fill="#dba47a" stroke="#b48664" stroke-width="0.4"/><rect x="52.416" y="238.79999999999998" width="1.8" height="6.510000000000008" fill="#dba47a" stroke="#b48664" stroke-width="0.4"/><polygon points="43.584,235.7 52.416,235.7 52.8576,239.885 52.1952,245 43.8048,245 43.1424,239.885" fill="#9a5ac8" stroke="#744496" stroke-width="0.5"/><rect x="44.199999999999996" y="245" width="1.8" height="9.9" fill="#3a2050" stroke="#2c183c" stroke-width="0.4"/><rect x="50" y="245" width="1.8" height="7.1" fill="#3a2050" stroke="#2c183c" stroke-width="0.4"/><circle cx="48" cy="232" r="4.2" fill="#dba47a" stroke="#b48664" stroke-width="0.5"/><path d="M 43.8 231.16 Q 48 226.12 52.2 231.16 L 51.78 235.78 L 44.22 235.78 Z" fill="#2a1810" stroke="#20120c" stroke-width="0.4"/><circle cx="46.53" cy="232.63" r="0.55" fill="#1a1a1a"/><circle cx="49.47" cy="232.63" r="0.55" fill="#1a1a1a"/><rect x="73.784" y="237.2" width="1.8" height="6.510000000000008" fill="#dba47a" stroke="#b48664" stroke-width="0.4"/><rect x="84.416" y="237.2" width="1.8" height="6.510000000000008" fill="#dba47a" stroke="#b48664" stroke-width="0.4"/><polygon points="75.584,235.7 84.416,235.7 84.8576,239.885 84.1952,245 75.8048,245 75.1424,239.885" fill="#9a5ac8" stroke="#744496" stroke-width="0.5"/><rect x="76.2" y="245" width="1.8" height="8.5" fill="#3a2050" stroke="#2c183c" stroke-width="0.4"/><rect x="82" y="245" width="1.8" height="8.5" fill="#3a2050" stroke="#2c183c" stroke-width="0.4"/><circle cx="80" cy="232" r="4.2" fill="#dba47a" stroke="#b48664" stroke-width="0.5"/><path d="M 75.8 231.16 Q 80 226.12 84.2 231.16 L 83.78 235.78 L 76.22 235.78 Z" fill="#2a1810" stroke="#20120c" stroke-width="0.4"/><circle cx="78.53" cy="232.63" r="0.55" fill="#1a1a1a"/><circle cx="81.47" cy="232.63" r="0.55" fill="#1a1a1a"/><rect x="105.784" y="238.79999999999998" width="1.8" height="6.510000000000008" fill="#dba47a" stroke="#b48664" stroke-width="0.4"/><rect x="116.416" y="235.6" width="1.8" height="6.510000000000008" fill="#dba47a" stroke="#b48664" stroke-width="0.4"/><polygon points="107.584,235.7 116.416,235.7 116.8576,239.885 116.1952,245 107.8048,245 107.1424,239.885" fill="#9a5ac8" stroke="#744496" stroke-width="0.5"/><rect x="108.2" y="245" width="1.8" height="7.1" fill="#3a2050" stroke="#2c183c" stroke-width="0.4"/><rect x="114" y="245" width="1.8" height="9.9" fill="#3a2050" stroke="#2c183c" stroke-width="0.4"/><circle cx="112" cy="232" r="4.2" fill="#dba47a" stroke="#b48664" stroke-width="0.5"/><path d="M 107.8 231.16 Q 112 226.12 116.2 231.16 L 115.78 235.78 L 108.22 235.78 Z" fill="#2a1810" stroke="#20120c" stroke-width="0.4"/><circle cx="110.53" cy="232.63" r="0.55" fill="#1a1a1a"/><circle cx="113.47" cy="232.63" r="0.55" fill="#1a1a1a"/>
</svg>
